<?xml version="1.0" encoding="UTF-8" standalone="no"?>
<!-- Created with Inkscape (http://www.inkscape.org/) -->

<svg
   xmlns:dc="http://purl.org/dc/elements/1.1/"
   xmlns:cc="http://creativecommons.org/ns#"
   xmlns:rdf="http://www.w3.org/1999/02/22-rdf-syntax-ns#"
   xmlns:svg="http://www.w3.org/2000/svg"
   xmlns="http://www.w3.org/2000/svg"
   xmlns:xlink="http://www.w3.org/1999/xlink"
   xmlns:sodipodi="http://sodipodi.sourceforge.net/DTD/sodipodi-0.dtd"
   xmlns:inkscape="http://www.inkscape.org/namespaces/inkscape"
   version="1.1"
   width="32"
   height="32"
   id="svg3996"
   inkscape:version="0.91 r"
   sodipodi:docname="iviewer.svg">
  <sodipodi:namedview
     pagecolor="#ffffff"
     bordercolor="#666666"
     borderopacity="1"
     objecttolerance="10"
     gridtolerance="10"
     guidetolerance="10"
     inkscape:pageopacity="0"
     inkscape:pageshadow="2"
     inkscape:window-width="1366"
     inkscape:window-height="713"
     id="namedview37"
     showgrid="false"
     inkscape:zoom="5.6568543"
     inkscape:cx="-21.004097"
     inkscape:cy="13.946531"
     inkscape:window-x="0"
     inkscape:window-y="30"
     inkscape:window-maximized="1"
     inkscape:current-layer="svg3996" />
  <defs
     id="defs3998">
    <linearGradient
       inkscape:collect="always"
       id="linearGradient3903">
      <stop
         style="stop-color:#000000;stop-opacity:1;"
         offset="0"
         id="stop3905" />
      <stop
         style="stop-color:#000000;stop-opacity:0;"
         offset="1"
         id="stop3907" />
    </linearGradient>
    <linearGradient
       id="linearGradient3843">
      <stop
         offset="0"
         style="stop-color:#7db9f3;stop-opacity:1;"
         id="stop3845" />
      <stop
         offset="1"
         style="stop-color:#2384d1;stop-opacity:1;"
         id="stop3847" />
    </linearGradient>
    <linearGradient
       x1="132.3414"
       y1="2.2922528"
       x2="132.3414"
       y2="33.33271"
       id="linearGradient6784-9"
       xlink:href="#linearGradient6786-4"
       gradientUnits="userSpaceOnUse"
       gradientTransform="matrix(1.1891887,0,0,1.4107063,-126.14094,-11.842585)" />
    <linearGradient
       id="linearGradient6786-4">
      <stop
         id="stop6788-2"
         style="stop-color:#ffffff;stop-opacity:1"
         offset="0" />
      <stop
         id="stop6790-0"
         style="stop-color:#ffffff;stop-opacity:0.23529412"
         offset="0.46352294" />
      <stop
         id="stop6792-0"
         style="stop-color:#ffffff;stop-opacity:0.15686275"
         offset="0.76175833" />
      <stop
         id="stop6794-4"
         style="stop-color:#ffffff;stop-opacity:0.39215687"
         offset="1" />
    </linearGradient>
    <linearGradient
       x1="22.642942"
       y1="26.966721"
       x2="22.642942"
       y2="30.98424"
       id="linearGradient6883"
       xlink:href="#linearGradient3922"
       gradientUnits="userSpaceOnUse"
       gradientTransform="matrix(1.23944,0,0,1.2401758,2.5038689,6.6210943)" />
    <linearGradient
       id="linearGradient3922">
      <stop
         id="stop3924"
         style="stop-color:#000000;stop-opacity:1"
         offset="0" />
      <stop
         id="stop3926-9"
         style="stop-color:#000000;stop-opacity:0"
         offset="1" />
    </linearGradient>
    <linearGradient
       x1="22.642942"
       y1="26.966721"
       x2="22.642942"
       y2="30.98424"
       id="linearGradient6886"
       xlink:href="#linearGradient3922"
       gradientUnits="userSpaceOnUse"
       gradientTransform="matrix(1.3333351,0,0,1.3333351,0.0846107,3.459921)" />
    <linearGradient
       x1="-51.786404"
       y1="53.514328"
       x2="-51.786404"
       y2="3.6336823"
       id="linearGradient3394-3"
       xlink:href="#linearGradient3104-8-8-97-9"
       gradientUnits="userSpaceOnUse"
       gradientTransform="matrix(1.0700435,0,0,1.1244505,78.923391,-1.102116)" />
    <linearGradient
       id="linearGradient3104-8-8-97-9">
      <stop
         id="stop3106-5-4-3-6"
         style="stop-color:#000000;stop-opacity:0.32173914"
         offset="0" />
      <stop
         id="stop3108-4-3-7-0"
         style="stop-color:#000000;stop-opacity:0.27826086"
         offset="1" />
    </linearGradient>
    <linearGradient
       x1="-60.960796"
       y1="28.233982"
       x2="-60.914154"
       y2="104.84189"
       id="linearGradient6654-1"
       xlink:href="#linearGradient3600-8-3"
       gradientUnits="userSpaceOnUse"
       gradientTransform="matrix(0.58378914,3.5977471e-4,-3.5543764e-4,0.59091266,61.565019,-10.157046)" />
    <linearGradient
       id="linearGradient3600-8-3">
      <stop
         id="stop3828-7-6"
         style="stop-color:#f4f4f4;stop-opacity:1"
         offset="0" />
      <stop
         id="stop3604-2-5"
         style="stop-color:#dbdbdb;stop-opacity:1"
         offset="1" />
    </linearGradient>
    <linearGradient
       id="linearGradient8838-561-565">
      <stop
         id="stop4621"
         style="stop-color:#0a0a0a;stop-opacity:1"
         offset="0" />
      <stop
         id="stop4623"
         style="stop-color:#0a0a0a;stop-opacity:0"
         offset="1" />
    </linearGradient>
    <radialGradient
       cx="62.625"
       cy="4.625"
       r="10.625"
       fx="62.625"
       fy="4.625"
       id="radialGradient3994"
       xlink:href="#linearGradient8838-561-565"
       gradientUnits="userSpaceOnUse"
       gradientTransform="matrix(2.8862785,0,0,1.0039217,-148.75315,46.023509)" />
    <linearGradient
       inkscape:collect="always"
       xlink:href="#linearGradient6786-4"
       id="linearGradient3044"
       gradientUnits="userSpaceOnUse"
       gradientTransform="matrix(1.1891887,0,0,1.4107063,-126.14094,4.157415)"
       x1="132.3414"
       y1="2.2922528"
       x2="132.3414"
       y2="33.33271" />
    <linearGradient
       inkscape:collect="always"
       xlink:href="#linearGradient3922"
       id="linearGradient3047"
       gradientUnits="userSpaceOnUse"
       gradientTransform="matrix(1.23944,0,0,1.2401758,82.196349,5.9139875)"
       x1="22.642942"
       y1="26.966721"
       x2="22.642942"
       y2="30.98424" />
    <linearGradient
       inkscape:collect="always"
       xlink:href="#linearGradient3922"
       id="linearGradient3050"
       gradientUnits="userSpaceOnUse"
       gradientTransform="matrix(1.3333351,0,0,1.3333351,95.785267,3.459921)"
       x1="22.642942"
       y1="26.966721"
       x2="22.642942"
       y2="30.98424" />
    <linearGradient
       inkscape:collect="always"
       xlink:href="#linearGradient3843"
       id="linearGradient3058"
       gradientUnits="userSpaceOnUse"
       gradientTransform="matrix(0.58378914,3.5977471e-4,-3.5543764e-4,0.59091266,61.565019,-10.157046)"
       x1="-60.960796"
       y1="28.233982"
       x2="-60.914154"
       y2="104.84189" />
    <radialGradient
       inkscape:collect="always"
       xlink:href="#linearGradient8838-561-565"
       id="radialGradient3061"
       gradientUnits="userSpaceOnUse"
       gradientTransform="matrix(2.8862785,0,0,1.0039217,-148.75315,46.023509)"
       cx="62.625"
       cy="4.625"
       fx="62.625"
       fy="4.625"
       r="10.625" />
    <linearGradient
       inkscape:collect="always"
       xlink:href="#linearGradient3600-8-3"
       id="linearGradient3069"
       gradientUnits="userSpaceOnUse"
       gradientTransform="matrix(-0.41185003,2.5381292e-4,2.5075322e-4,0.4168755,18.85141,8.9069708)"
       x1="-60.960796"
       y1="28.233982"
       x2="-60.914154"
       y2="104.84189" />
    <linearGradient
       inkscape:collect="always"
       xlink:href="#linearGradient3104-8-8-97-9"
       id="linearGradient3071"
       gradientUnits="userSpaceOnUse"
       gradientTransform="matrix(-0.7548915,0,0,0.79327441,6.6054713,15.29502)"
       x1="-51.786404"
       y1="53.514328"
       x2="-51.786404"
       y2="3.6336823" />
    <linearGradient
       inkscape:collect="always"
       xlink:href="#linearGradient6786-4"
       id="linearGradient3073"
       gradientUnits="userSpaceOnUse"
       gradientTransform="matrix(-0.83894574,0,0,0.9952214,151.27372,19.0055)"
       x1="132.3414"
       y1="2.2922528"
       x2="132.3414"
       y2="33.33271" />
    <linearGradient
       inkscape:collect="always"
       xlink:href="#linearGradient3903"
       id="linearGradient3909"
       x1="30.950611"
       y1="32.005627"
       x2="30.950611"
       y2="38.56596"
       gradientUnits="userSpaceOnUse" />
    <linearGradient
       inkscape:collect="always"
       xlink:href="#linearGradient3903"
       id="linearGradient3932"
       gradientUnits="userSpaceOnUse"
       x1="30.950611"
       y1="32.005627"
       x2="30.950611"
       y2="38.56596" />
    <linearGradient
       inkscape:collect="always"
       xlink:href="#linearGradient3903"
       id="linearGradient3942"
       gradientUnits="userSpaceOnUse"
       x1="30.950611"
       y1="32.005627"
       x2="30.950611"
       y2="38.56596" />
    <linearGradient
       inkscape:collect="always"
       xlink:href="#linearGradient3903"
       id="linearGradient3960"
       gradientUnits="userSpaceOnUse"
       x1="30.950611"
       y1="32.005627"
       x2="30.950611"
       y2="38.56596" />
    <linearGradient
       inkscape:collect="always"
       xlink:href="#linearGradient3903"
       id="linearGradient3962"
       gradientUnits="userSpaceOnUse"
       x1="30.950611"
       y1="32.005627"
       x2="30.950611"
       y2="38.56596" />
    <linearGradient
       inkscape:collect="always"
       xlink:href="#linearGradient3903"
       id="linearGradient3964"
       gradientUnits="userSpaceOnUse"
       x1="30.950611"
       y1="32.005627"
       x2="30.950611"
       y2="38.56596" />
    <radialGradient
       inkscape:collect="always"
       xlink:href="#linearGradient8838-561-565"
       id="radialGradient3069"
       gradientUnits="userSpaceOnUse"
       gradientTransform="matrix(1.4117647,0,0,0.49104797,-72.411758,22.719843)"
       cx="62.625"
       cy="4.625"
       fx="62.625"
       fy="4.625"
       r="10.625" />
    <linearGradient
       inkscape:collect="always"
       xlink:href="#linearGradient3903"
       id="linearGradient3072"
       gradientUnits="userSpaceOnUse"
       x1="30.950611"
       y1="32.005627"
       x2="30.950611"
       y2="38.56596" />
    <linearGradient
       inkscape:collect="always"
       xlink:href="#linearGradient3903"
       id="linearGradient3074"
       gradientUnits="userSpaceOnUse"
       x1="30.950611"
       y1="32.005627"
       x2="30.950611"
       y2="38.56596" />
    <linearGradient
       inkscape:collect="always"
       xlink:href="#linearGradient3903"
       id="linearGradient3076"
       gradientUnits="userSpaceOnUse"
       x1="30.950611"
       y1="32.005627"
       x2="30.950611"
       y2="38.56596" />
    <linearGradient
       inkscape:collect="always"
       xlink:href="#linearGradient3903"
       id="linearGradient3090"
       gradientUnits="userSpaceOnUse"
       x1="30.950611"
       y1="32.005627"
       x2="30.950611"
       y2="38.56596" />
    <linearGradient
       inkscape:collect="always"
       xlink:href="#linearGradient3903"
       id="linearGradient3095"
       gradientUnits="userSpaceOnUse"
       x1="30.950611"
       y1="32.005627"
       x2="30.950611"
       y2="38.56596" />
    <linearGradient
       inkscape:collect="always"
       xlink:href="#linearGradient3903"
       id="linearGradient3100"
       gradientUnits="userSpaceOnUse"
       x1="30.950611"
       y1="32.005627"
       x2="30.950611"
       y2="38.56596" />
    <linearGradient
       inkscape:collect="always"
       xlink:href="#linearGradient3903"
       id="linearGradient3105"
       gradientUnits="userSpaceOnUse"
       x1="30.950611"
       y1="32.005627"
       x2="30.950611"
       y2="38.56596" />
    <linearGradient
       inkscape:collect="always"
       xlink:href="#linearGradient3903"
       id="linearGradient3107"
       gradientUnits="userSpaceOnUse"
       x1="30.950611"
       y1="32.005627"
       x2="30.950611"
       y2="38.56596" />
    <linearGradient
       inkscape:collect="always"
       xlink:href="#linearGradient3903"
       id="linearGradient3109"
       gradientUnits="userSpaceOnUse"
       x1="30.950611"
       y1="32.005627"
       x2="30.950611"
       y2="38.56596" />
  </defs>
  <metadata
     id="metadata4001">
    <rdf:RDF>
      <cc:Work
         rdf:about="">
        <dc:format>image/svg+xml</dc:format>
        <dc:type
           rdf:resource="http://purl.org/dc/dcmitype/StillImage" />
        <dc:title />
      </cc:Work>
    </rdf:RDF>
  </metadata>
  <g
     id="g3122"
     transform="matrix(1.1,0,0,1.1,-1.6,-1.6301729)">
    <path
       d="m 31,24.990943 c 0,2.881486 -6.715729,5.217392 -15,5.217392 -8.2842719,0 -15,-2.335906 -15,-5.217392 0,-2.881485 6.7157281,-5.217391 15,-5.217391 8.284271,0 15,2.335906 15,5.217391 l 0,0 z"
       inkscape:connector-curvature="0"
       id="path8836"
       style="display:inline;overflow:visible;visibility:visible;opacity:0.2;fill:url(#radialGradient3069);fill-opacity:1;fill-rule:evenodd;stroke:none;stroke-width:2.04444742;marker:none" />
    <g
       transform="matrix(0.48912975,0,0,0.48912975,0.34783264,0.208376)"
       id="g3854"
       style="stroke-width:2.04444742;stroke-miterlimit:4;stroke-dasharray:none">
      <path
         style="color:#000000;display:inline;overflow:visible;visibility:visible;fill:url(#linearGradient3058);fill-opacity:1;fill-rule:nonzero;stroke:none;stroke-width:2.04444742;marker:none;enable-background:accumulate"
         id="path6603"
         inkscape:connector-curvature="0"
         d="M 31.953959,6.0176921 C 22.11094,6.3912253 11.858853,10.954952 6.6522526,19.807041 2.7643421,26.136454 3.1646994,34.803814 7.762162,40.649074 c 1.6609601,2.342783 3.941288,4.127204 6.196705,5.803354 1.062471,3.385799 -1.473055,6.768466 -3.421816,9.31814 1.078185,0.206687 4.935196,-0.860738 6.942287,-1.642696 2.40723,-0.927943 4.602881,-2.355586 6.805215,-3.653278 11.107724,2.154163 23.661234,-1.236146 31.066302,-10.255237 4.76862,-5.586768 6.200744,-14.078121 2.731322,-20.717984 C 53.695177,10.849568 43.974632,6.4213387 34.749014,6.0408042 33.818027,6.0017872 32.885388,5.9842212 31.953959,6.0176921 Z"
         sodipodi:nodetypes="ccccccccccc" />
      <path
         style="color:#000000;display:inline;overflow:visible;visibility:visible;opacity:0.5;fill:none;stroke:#002255;stroke-width:2.04444742;stroke-linecap:butt;stroke-linejoin:round;stroke-miterlimit:4;stroke-dasharray:none;stroke-dashoffset:0;stroke-opacity:1;marker:none;enable-background:accumulate"
         id="path4111-6"
         inkscape:connector-curvature="0"
         d="M 31.924848,5.510881 C 31.197645,5.538971 30.48112,5.593951 29.745382,5.664212 14.049225,7.1630707 2.3392165,18.653416 3.5917743,31.268994 4.2170812,37.566965 7.9728583,42.958826 13.512108,46.6012 l 0,0.153336 c 0,0 1.723663,2.967939 -4.133472,9.582629 0,0 6.343146,0.401927 14.955654,-5.442933 3.14846,0.61244 6.471137,0.789331 9.920332,0.459968 C 49.950803,49.855349 61.660766,38.441659 60.408228,25.826074 59.273103,14.393206 47.912601,5.883551 34.104316,5.510904 c -0.714216,-0.01937 -1.45229,-0.02808 -2.179468,0 z" />
      <path
         style="color:#000000;display:inline;overflow:visible;visibility:visible;opacity:0.5;fill:none;stroke:url(#linearGradient3044);stroke-width:2.04444742;stroke-linecap:round;stroke-linejoin:miter;stroke-miterlimit:4;stroke-dasharray:none;stroke-dashoffset:0;stroke-opacity:1;marker:none;enable-background:accumulate"
         id="path3089"
         inkscape:connector-curvature="0"
         d="m 31.96875,7.5842319 c -0.699984,0.027039 -1.399306,0.086952 -2.125,0.15625 C 16.256305,9.0379756 4.4011937,19.147543 5.5876293,31.097147 c 0.5922514,5.965043 4.3726772,10.918324 9.7085577,14.426971 0.477344,1.247592 0.472259,1.308312 0.503398,2.596474 -0.26938,1.415402 -0.64277,2.762146 -2.190224,5.511835 3.003731,-0.576297 7.594999,-3.166467 9.946007,-4.532556 0.216263,-0.148144 0.49257,-0.205708 0.75,-0.15625 3.050999,0.593482 6.400555,1.269209 9.760529,0.948366 C 49.332812,48.434127 59.508483,37.856347 58.322018,25.90625 57.246625,15.074999 47.477349,7.9462612 34.0625,7.5842319 c -0.704312,-0.019101 -1.399619,-0.026804 -2.09375,0 z"
         sodipodi:nodetypes="csscccccsscc" />
    </g>
    <g
       transform="matrix(0.48912975,0,0,0.48912975,0.34783264,0.208376)"
       id="g3849"
       style="stroke-width:2.04444742;stroke-miterlimit:4;stroke-dasharray:none">
      <path
         sodipodi:nodetypes="ccccccccccc"
         d="m 39.741344,20.483611 c 6.944026,0.263519 14.176641,3.317396 17.84978,9.562345 2.742834,4.465257 1.996352,11.082592 -0.777491,14.758826 -1.17177,1.652779 -2.614762,2.922697 -4.205907,4.105183 -0.74955,2.388604 0.715765,4.607248 2.09057,6.405985 -0.879005,0.365645 -3.329478,-0.50577 -4.745434,-1.057424 -1.698247,-0.654643 -3.247231,-1.661813 -4.800926,-2.577305 -7.836248,1.519713 -16.692465,-0.872073 -21.916574,-7.234838 -3.364153,-3.941338 -4.374483,-9.931794 -1.926886,-14.616069 3.094929,-6.103652 9.952554,-9.06194 16.46102,-9.330398 0.656788,-0.02753 1.314744,-0.03991 1.971848,-0.0163 z"
         inkscape:connector-curvature="0"
         id="path3063"
         style="color:#000000;display:inline;overflow:visible;visibility:visible;fill:url(#linearGradient3069);fill-opacity:1;fill-rule:nonzero;stroke:none;stroke-width:2.04444742;marker:none;enable-background:accumulate" />
      <path
         d="m 39.761881,19.96034 c 0.513025,0.01981 1.018517,0.0586 1.537564,0.10817 11.073284,1.057411 19.334429,9.16359 18.450778,18.063595 -0.44114,4.443075 -3.090755,8.246912 -6.998571,10.816523 l 0,0.108171 c 0,0 -1.216004,2.093814 2.916071,6.760328 0,0 -4.474946,0.283551 -10.550876,-3.839866 -2.221166,0.432062 -4.565241,0.556856 -6.998568,0.324498 -11.073302,-1.057407 -19.334416,-9.109507 -18.450778,-18.009517 0.800805,-8.065629 8.815381,-14.068997 18.556814,-14.331891 0.503863,-0.01366 1.024557,-0.01981 1.537566,0 z"
         inkscape:connector-curvature="0"
         id="path3065"
         style="color:#000000;display:inline;overflow:visible;visibility:visible;fill:none;stroke:url(#linearGradient3071);stroke-width:2.04444742;stroke-linecap:butt;stroke-linejoin:round;stroke-miterlimit:4;stroke-dasharray:none;stroke-dashoffset:0;stroke-opacity:1;marker:none;enable-background:accumulate" />
      <path
         sodipodi:nodetypes="ccscccsscccsscc"
         d="m 39.730909,21.971936 c 0.493821,0.01908 0.987178,0.06133 1.499139,0.110235 10.767688,1.028229 17.268255,7.381565 16.431252,15.811739 -0.417821,4.208205 -2.640957,7.120599 -6.405298,9.59587 -0.201127,0.125331 -0.330536,0.358267 -0.330695,0.595247 -0.0025,0.006 0.0026,0.01562 0,0.02205 -0.04714,0.113091 -0.07268,0.150007 -0.110235,0.352737 -0.06589,0.355706 -0.324782,1.970482 -0.203842,2.605961 0.190041,0.998533 0.660465,1.985993 0.917634,2.292991 -1.067936,-0.165419 -4.800538,-2.495335 -5.886341,-3.391858 -0.152568,-0.104513 -0.347496,-0.145125 -0.529108,-0.110234 -2.152412,0.418687 -5.12007,0.490365 -7.490454,0.264012 -8.175028,-0.780648 -16.775496,-7.205823 -15.938472,-15.636346 0.758666,-7.641203 8.70013,-12.300036 16.569328,-12.512403 0.496876,-0.01347 0.987399,-0.0189 1.477092,-1e-6 z"
         inkscape:connector-curvature="0"
         id="path3067"
         style="color:#000000;display:inline;overflow:visible;visibility:visible;fill:none;stroke:url(#linearGradient3073);stroke-width:2.04444742;stroke-linecap:round;stroke-linejoin:miter;stroke-miterlimit:4;stroke-dasharray:none;stroke-dashoffset:0;stroke-opacity:1;marker:none;enable-background:accumulate" />
    </g>
    <g
       id="g3111">
      <circle
         transform="matrix(0.48912975,0,0,-0.48912975,8.5206344,35.432906)"
         id="path3879"
         style="fill:#ffffff;stroke:none"
         cx="31.125"
         cy="35.125"
         r="3" />
      <circle
         style="fill:#808080;stroke:none"
         id="path3871"
         transform="matrix(0.48912975,0,0,0.48912975,8.5206344,0.72490458)"
         cx="31.125"
         cy="35.125"
         r="3" />
      <circle
         transform="matrix(0.41925407,0,0,0.41925407,10.695515,3.1792886)"
         id="path3873"
         style="opacity:0.3;fill:none;stroke:url(#linearGradient3109);stroke-width:2.38518858;stroke-miterlimit:4;stroke-dasharray:none;stroke-opacity:1"
         cx="31.125"
         cy="35.125"
         r="2.3148258" />
      <circle
         style="fill:#ffffff;stroke:none"
         id="path3926"
         transform="matrix(0.48912975,0,0,-0.48912975,4.5464552,35.432906)"
         cx="31.125"
         cy="35.125"
         r="3" />
      <circle
         transform="matrix(0.48912975,0,0,0.48912975,4.5464552,0.72490458)"
         id="path3928"
         style="fill:#808080;stroke:none"
         cx="31.125"
         cy="35.125"
         r="3" />
      <circle
         style="opacity:0.3;fill:none;stroke:url(#linearGradient3107);stroke-width:2.38518858;stroke-miterlimit:4;stroke-dasharray:none;stroke-opacity:1"
         id="path3930"
         transform="matrix(0.41925407,0,0,0.41925407,6.7213359,3.1792886)"
         cx="31.125"
         cy="35.125"
         r="2.2884729" />
      <circle
         transform="matrix(0.48912975,0,0,-0.48912975,0.57227599,35.432906)"
         id="path3936"
         style="fill:#ffffff;stroke:none"
         cx="31.125"
         cy="35.125"
         r="3" />
      <circle
         style="fill:#808080;stroke:none"
         id="path3938"
         transform="matrix(0.48912975,0,0,0.48912975,0.57227599,0.72490458)"
         cx="31.125"
         cy="35.125"
         r="3" />
      <circle
         transform="matrix(0.41925407,0,0,0.41925407,2.7471567,3.1792886)"
         id="path3940"
         style="opacity:0.3;fill:none;stroke:url(#linearGradient3105);stroke-width:2.38518858;stroke-miterlimit:4;stroke-dasharray:none;stroke-opacity:1"
         cx="31.125"
         cy="35.125"
         r="2.3148258" />
    </g>
  </g>
</svg>
